<svg width="20" height="25" viewBox="0 0 20 25" fill="none" xmlns="http://www.w3.org/2000/svg">
<g clip-path="url(#clip0_75_1889)">
<path d="M6.68029 22.9799C7.50059 22.9799 8.00841 22.5209 7.99864 21.7201L7.80334 10.7533C7.80334 10.4115 7.94982 10.1576 8.25255 10.0209C9.54161 9.45446 10.0983 8.85879 10.0299 7.14978L9.75646 1.15369C9.73693 0.723999 9.48302 0.479858 9.08263 0.479858C8.70177 0.479858 8.46739 0.733765 8.46739 1.17322L8.53575 7.0033C8.53575 7.34509 8.32091 7.55994 7.99864 7.55994C7.66661 7.55994 7.43224 7.35486 7.43224 7.03259L7.33459 0.997437C7.32482 0.577515 7.08068 0.333374 6.68029 0.333374C6.27989 0.333374 6.04552 0.577515 6.03575 0.997437L5.93809 7.03259C5.93809 7.35486 5.70372 7.55994 5.37169 7.55994C5.04943 7.55994 4.82482 7.34509 4.82482 7.0033L4.89318 1.17322C4.89318 0.733765 4.66857 0.479858 4.27794 0.479858C3.87755 0.479858 3.62364 0.723999 3.60411 1.15369L3.34044 7.14978C3.26232 8.85879 3.81896 9.45446 5.10802 10.0209C5.41075 10.1576 5.55724 10.4115 5.55724 10.7533L5.37169 21.7201C5.36193 22.5209 5.85997 22.9799 6.68029 22.9799ZM14.317 14.4642L14.1119 21.6713C14.0827 22.5209 14.6002 22.9799 15.4108 22.9799C16.2408 22.9799 16.7487 22.56 16.7487 21.7787V1.0658C16.7487 0.567749 16.4068 0.333374 16.0553 0.333374C15.6842 0.333374 15.4401 0.528687 15.1276 0.987671C13.5553 3.1947 12.5202 7.32556 12.5202 11.2318V11.7103C12.5202 12.3841 12.7643 12.8822 13.2526 13.2045L13.8288 13.5951C14.1803 13.8392 14.3365 14.1127 14.317 14.4642Z" fill="white"/>
</g>
<defs>
<clipPath id="clip0_75_1889">
<rect width="13.4154" height="24.0918" fill="white" transform="translate(3.33325 0.333374)"/>
</clipPath>
</defs>
</svg>
