<svg width="29" height="24" viewBox="0 0 29 24" fill="none" xmlns="http://www.w3.org/2000/svg">
<g clip-path="url(#clip0_75_2270)">
<path d="M6.99609 1.35894L1.07812 7.3941C0.878906 7.60503 0.75 7.90972 0.75 8.16753C0.75 8.78863 1.17188 9.2105 1.78125 9.2105C2.08594 9.2105 2.32031 9.10503 2.51953 8.90582L4.95703 6.38628L6.84375 4.2066L6.72656 6.91363V21.9722C6.72656 22.5933 7.16016 23.0269 7.78125 23.0269C8.39062 23.0269 8.82422 22.5933 8.82422 21.9722V6.91363L8.71875 4.2066L10.5938 6.38628L13.043 8.90582C13.2422 9.10503 13.4648 9.2105 13.7695 9.2105C14.3789 9.2105 14.8008 8.78863 14.8008 8.16753C14.8008 7.90972 14.6836 7.60503 14.4727 7.3941L8.56641 1.35894C8.13281 0.90191 7.44141 0.878473 6.99609 1.35894ZM21.9375 22.687L27.8438 16.6284C28.0547 16.4292 28.1719 16.1245 28.1719 15.855C28.1719 15.2339 27.75 14.8237 27.1406 14.8237C26.8359 14.8237 26.6133 14.9175 26.4141 15.1167L23.9766 17.6362L22.0898 19.8277L22.1953 17.1206V2.06207C22.1953 1.45269 21.7617 1.00738 21.1523 1.00738C20.5312 1.00738 20.0977 1.45269 20.0977 2.06207V17.1206L20.2148 19.8277L18.3281 17.6362L15.8906 15.1167C15.6914 14.9175 15.457 14.8237 15.1641 14.8237C14.5547 14.8237 14.1211 15.2339 14.1211 15.855C14.1211 16.1245 14.25 16.4292 14.4609 16.6284L20.3672 22.687C20.8008 23.1441 21.4805 23.1558 21.9375 22.687Z" fill="#014CE6"/>
</g>
<defs>
<clipPath id="clip0_75_2270">
<rect width="27.4219" height="22.0342" fill="white" transform="translate(0.75 1)"/>
</clipPath>
</defs>
</svg>
