<svg width="28" height="20" viewBox="0 0 28 20" fill="none" xmlns="http://www.w3.org/2000/svg">
<g clip-path="url(#clip0_75_1902)">
<path d="M0.666748 15.0097C0.666748 17.0019 1.67261 17.9981 3.69409 17.9981H22.5222C25.7644 17.9981 27.4538 16.1035 27.4538 13.8672C27.4538 12.5 26.8386 11.0157 25.5202 9.7168L21.5261 5.75195C18.9968 3.25195 17.366 2.5 14.3777 2.5H3.69409C1.67261 2.5 0.666748 3.49609 0.666748 5.48828V15.0097ZM10.9987 10.3711V6.77734C10.9987 6.19141 11.3406 5.84961 11.9265 5.84961H14.6023C17.3855 5.84961 18.6941 6.21093 20.0808 7.57812L22.3269 9.81445C22.9422 10.4297 22.5808 11.2695 21.9167 11.2695H11.9265C11.3406 11.2695 10.9987 10.9277 10.9987 10.3711Z" fill="white"/>
</g>
<defs>
<clipPath id="clip0_75_1902">
<rect width="26.7871" height="15.4981" fill="white" transform="translate(0.666748 2.5)"/>
</clipPath>
</defs>
</svg>
