<svg width="25" height="25" viewBox="0 0 25 25" fill="none" xmlns="http://www.w3.org/2000/svg">
<g clip-path="url(#clip0_75_1958)">
<path d="M3.92969 23.1474H17.6875C19.7969 23.1474 21.0156 21.9287 21.0156 19.5146V6.98725L19.1289 8.87397V19.4208C19.1289 20.6396 18.4727 21.2607 17.6641 21.2607H3.96484C2.79297 21.2607 2.13672 20.6396 2.13672 19.4208V6.12006C2.13672 4.90131 2.79297 4.2685 3.96484 4.2685H14.6406L16.5273 2.38178H3.92969C1.49219 2.38178 0.25 3.60053 0.25 6.01459V19.5146C0.25 21.9404 1.49219 23.1474 3.92969 23.1474ZM8.19531 15.5537L10.4805 14.5576L21.4258 3.62397L19.8203 2.04194L8.88672 12.9755L7.83203 15.1787C7.73828 15.3779 7.97266 15.6474 8.19531 15.5537ZM22.293 2.7685L23.1367 1.90131C23.5352 1.47944 23.5352 0.916936 23.1367 0.530217L22.8672 0.248967C22.5039 -0.114314 21.9297 -0.0674387 21.543 0.307561L20.6875 1.15131L22.293 2.7685Z" fill="#014CE6"/>
</g>
<defs>
<clipPath id="clip0_75_1958">
<rect width="23.1855" height="24.7675" fill="white" transform="translate(0.25)"/>
</clipPath>
</defs>
</svg>
