<svg width="25" height="20" viewBox="0 0 25 20" fill="none" xmlns="http://www.w3.org/2000/svg">
<g clip-path="url(#clip0_75_1915)">
<path d="M0.333252 14.6256C0.333252 15.0748 0.509034 15.358 0.899659 15.5435C1.98364 16.0807 2.58911 16.696 3.26294 18.024C3.46802 18.3854 3.77075 18.571 4.17114 18.571H20.6458C21.0364 18.571 21.3391 18.3854 21.5442 18.024C22.218 16.696 22.8235 16.0807 23.9173 15.5435C24.3078 15.358 24.4837 15.0748 24.4837 14.6256V5.6217C24.4837 5.16272 24.3078 4.87952 23.9173 4.70373C22.8235 4.16663 22.218 3.54163 21.5442 2.22327C21.3391 1.85217 21.0364 1.66663 20.6458 1.66663H4.17114C3.77075 1.66663 3.46802 1.85217 3.26294 2.22327C2.58911 3.54163 1.98364 4.16663 0.899659 4.70373C0.509034 4.87952 0.333252 5.16272 0.333252 5.6217V14.6256ZM4.34693 14.5768V5.67053C4.34693 5.14319 4.70825 4.78186 5.23559 4.78186H19.5715C20.1087 4.78186 20.4602 5.14319 20.4602 5.67053V14.5768C20.4602 15.1139 20.1087 15.4655 19.5715 15.4655H5.23559C4.70825 15.4655 4.34693 15.1139 4.34693 14.5768ZM5.58716 7.94593H6.89575V6.00256H5.802C5.65552 6.00256 5.58716 6.09045 5.58716 6.22718V7.94593ZM5.58716 11.0905H6.89575V9.16663H5.58716V11.0905ZM5.58716 14.0201C5.58716 14.1666 5.65552 14.2448 5.802 14.2448H6.89575V12.3111H5.58716V14.0201ZM17.9212 7.94593H19.2298V6.22718C19.2298 6.09045 19.1614 6.00256 19.0149 6.00256H17.9212V7.94593ZM17.9212 11.0905H19.2298V9.16663H17.9212V11.0905ZM17.9212 14.2448H19.0149C19.1614 14.2448 19.2298 14.1666 19.2298 14.0201V12.3111H17.9212V14.2448ZM8.12622 14.2448H16.6907V6.00256H8.12622V14.2448Z" fill="white"/>
</g>
<defs>
<clipPath id="clip0_75_1915">
<rect width="24.1504" height="16.9238" fill="white" transform="translate(0.333252 1.66663)"/>
</clipPath>
</defs>
</svg>
