<svg width="26" height="20" viewBox="0 0 26 20" fill="none" xmlns="http://www.w3.org/2000/svg">
<g clip-path="url(#clip0_75_489)">
<path d="M0.5 17.3111C0.5 17.819 0.822266 18.1412 1.33008 18.1412H1.91602C2.41407 18.1412 2.74609 17.819 2.74609 17.3111V15.8659C2.85352 15.8951 3.17578 15.9147 3.41016 15.9147H22.3359C22.5703 15.9147 22.8926 15.8951 23 15.8659V17.3111C23 17.819 23.332 18.1412 23.8301 18.1412H24.416C24.9238 18.1412 25.2461 17.819 25.2461 17.3111V11.4909C25.2461 9.62561 24.2109 8.60022 22.3457 8.60022H3.40039C1.53516 8.60022 0.5 9.62561 0.5 11.4909V17.3111ZM2.84375 7.20373H5.32422V5.79748C5.32422 4.88928 5.83203 4.39123 6.75977 4.39123H10.4023C11.3203 4.39123 11.8282 4.88928 11.8282 5.79748V7.20373H14.0449V5.79748C14.0449 4.88928 14.5527 4.39123 15.5293 4.39123H18.9472C19.9238 4.39123 20.4317 4.88928 20.4317 5.79748V7.20373H22.9218V4.401C22.9218 2.59436 21.9453 1.66663 20.1875 1.66663H5.56836C3.81055 1.66663 2.84375 2.59436 2.84375 4.401V7.20373Z" fill="white"/>
</g>
<defs>
<clipPath id="clip0_75_489">
<rect width="24.7461" height="16.4942" fill="white" transform="translate(0.5 1.66663)"/>
</clipPath>
</defs>
</svg>
